<svg width="16" height="16" viewBox="0 0 16 16" fill="none" xmlns="http://www.w3.org/2000/svg">
<path fill-rule="evenodd" clip-rule="evenodd" d="M4.66669 14C3.19393 14 2.00002 12.8061 2.00002 11.3333V4.66668C2.00002 3.19394 3.19393 2.00001 4.66669 2.00001H11.3334C12.8061 2.00001 14 3.19394 14 4.66668V11.3333C14 12.8061 12.8061 14 11.3334 14H4.66669ZM0.666687 11.3333C0.666687 13.5425 2.45755 15.3333 4.66669 15.3333H11.3334C13.5425 15.3333 15.3334 13.5425 15.3334 11.3333V4.66668C15.3334 2.45754 13.5425 0.666677 11.3334 0.666677H4.66669C2.45755 0.666677 0.666687 2.45754 0.666687 4.66668V11.3333Z" fill="#0F241D"/>
<path fill-rule="evenodd" clip-rule="evenodd" d="M8.32219 10.0072C7.90605 10.0689 7.48112 9.99781 7.10772 9.80406C6.73432 9.61031 6.43149 9.30374 6.24236 8.92801C6.05323 8.55221 5.9874 8.12641 6.05423 7.71108C6.12106 7.29574 6.31715 6.91208 6.61461 6.61461C6.91205 6.31714 7.29579 6.12108 7.71112 6.05421C8.12639 5.98741 8.55225 6.05321 8.92799 6.24234C9.30379 6.43148 9.61032 6.73428 9.80405 7.10768C9.99785 7.48108 10.0689 7.90608 10.0072 8.32221C9.94425 8.74668 9.74645 9.13961 9.44305 9.44303C9.13965 9.74645 8.74665 9.94424 8.32219 10.0072ZM6.49359 10.9876C7.11592 11.3105 7.82425 11.4289 8.51779 11.3261C9.22519 11.2212 9.88012 10.8915 10.3859 10.3858C10.8916 9.88014 11.2212 9.22521 11.3261 8.51774C11.4289 7.82421 11.3105 7.11594 10.9876 6.49361C10.6647 5.87128 10.1537 5.36661 9.52745 5.05134C8.90119 4.73614 8.19145 4.62641 7.49925 4.73781C6.80705 4.84921 6.16757 5.17601 5.67181 5.67181C5.17604 6.16754 4.84922 6.80701 4.73783 7.49928C4.62645 8.19148 4.73616 8.90121 5.05138 9.52745C5.3666 10.1537 5.87126 10.6646 6.49359 10.9876Z" fill="#0F241D"/>
<path fill-rule="evenodd" clip-rule="evenodd" d="M11 11.6667C11 12.0349 11.2985 12.3333 11.6667 12.3333H11.6733C12.0415 12.3333 12.34 12.0349 12.34 11.6667C12.34 11.2985 12.0415 11 11.6733 11H11.6667C11.2985 11 11 11.2985 11 11.6667Z" fill="#0F241D"/>
</svg>
