<svg width="16" height="16" viewBox="0 0 16 16" fill="none" xmlns="http://www.w3.org/2000/svg">
<path fill-rule="evenodd" clip-rule="evenodd" d="M2.66669 3.33333C2.30154 3.33333 2.00002 3.63485 2.00002 4V12C2.00002 12.3651 2.30154 12.6667 2.66669 12.6667H13.3334C13.6985 12.6667 14 12.3651 14 12V4C14 3.63485 13.6985 3.33333 13.3334 3.33333H2.66669ZM0.666687 4C0.666687 2.89848 1.56516 2 2.66669 2H13.3334C14.4349 2 15.3334 2.89848 15.3334 4V12C15.3334 13.1015 14.4349 14 13.3334 14H2.66669C1.56516 14 0.666687 13.1015 0.666687 12V4Z" fill="#0F241D"/>
<path fill-rule="evenodd" clip-rule="evenodd" d="M0.787197 3.61767C0.998337 3.31603 1.41402 3.24268 1.71566 3.45382L8.00002 7.85287L14.2843 3.45382C14.586 3.24268 15.0017 3.31603 15.2128 3.61767C15.4239 3.9193 15.3506 4.33499 15.049 4.54613L8.38235 9.2128C8.15275 9.37347 7.84728 9.37347 7.61768 9.2128L0.951043 4.54613C0.649408 4.33499 0.576052 3.9193 0.787197 3.61767Z" fill="#0F241D"/>
</svg>
