<svg width="31" height="29" viewBox="0 0 31 29" fill="none" xmlns="http://www.w3.org/2000/svg">
<path d="M28.2754 3.45508H9.99023C8.48746 3.45508 7.26562 4.59865 7.26562 6.00391C7.26562 7.40973 8.48746 8.55273 9.99023 8.55273H28.2754C29.7776 8.55273 31 7.40973 31 6.00391C31 4.59865 29.7776 3.45508 28.2754 3.45508Z" fill="#FC6B3F"/>
<path d="M28.2754 11.9512H9.99023C8.48746 11.9512 7.26562 13.0947 7.26562 14.5C7.26562 15.9058 8.48746 17.0488 9.99023 17.0488H28.2754C29.7776 17.0488 31 15.9058 31 14.5C31 13.0947 29.7776 11.9512 28.2754 11.9512Z" fill="#FC6B3F"/>
<path d="M28.2754 20.4473H9.99023C8.48746 20.4473 7.26562 21.5908 7.26562 22.9961C7.26562 24.4019 8.48746 25.5449 9.99023 25.5449H28.2754C29.7776 25.5449 31 24.4019 31 22.9961C31 21.5908 29.7776 20.4473 28.2754 20.4473Z" fill="#FC6B3F"/>
<path d="M2.72461 3.45508C1.22184 3.45508 0 4.59865 0 6.00391C0 7.40973 1.22184 8.55273 2.72461 8.55273C4.22678 8.55273 5.44922 7.40973 5.44922 6.00391C5.44922 4.59865 4.22678 3.45508 2.72461 3.45508Z" fill="#FC6B3F"/>
<path d="M2.72461 11.9512C1.22184 11.9512 0 13.0947 0 14.5C0 15.9058 1.22184 17.0488 2.72461 17.0488C4.22678 17.0488 5.44922 15.9058 5.44922 14.5C5.44922 13.0947 4.22678 11.9512 2.72461 11.9512Z" fill="#FC6B3F"/>
<path d="M2.72461 20.4473C1.22184 20.4473 0 21.5908 0 22.9961C0 24.4019 1.22184 25.5449 2.72461 25.5449C4.22678 25.5449 5.44922 24.4019 5.44922 22.9961C5.44922 21.5908 4.22678 20.4473 2.72461 20.4473Z" fill="#FC6B3F"/>
</svg>
