<svg width="14" height="14" viewBox="0 0 14 14" fill="none" xmlns="http://www.w3.org/2000/svg">
<path d="M9.73333 8.01668C9.6 7.95001 8.73333 7.55001 8.6 7.48335C8.46667 7.41668 8.33333 7.41668 8.2 7.55001C8.06667 7.68335 7.8 8.08335 7.66667 8.21668C7.6 8.35001 7.46667 8.35001 7.33333 8.28335C6.86667 8.08335 6.4 7.81668 6 7.48335C5.66667 7.15001 5.33333 6.75001 5.06667 6.35001C5 6.21668 5.06667 6.08335 5.13333 6.01668C5.2 5.95001 5.26667 5.81668 5.4 5.75001C5.46667 5.68335 5.53333 5.55001 5.53333 5.48335C5.6 5.41668 5.6 5.28334 5.53333 5.21667C5.46667 5.15 5.13333 4.35 5 4.01667C4.93333 3.55 4.8 3.55 4.66667 3.55C4.6 3.55 4.46667 3.55 4.33333 3.55C4.2 3.55 4 3.68334 3.93333 3.75C3.53333 4.15 3.33333 4.61667 3.33333 5.15C3.4 5.75001 3.6 6.35001 4 6.88335C4.73333 7.95001 5.66667 8.81668 6.8 9.35001C7.13333 9.48335 7.4 9.61668 7.73333 9.68335C8.06667 9.81668 8.4 9.81668 8.8 9.75001C9.26667 9.68335 9.66667 9.35001 9.93333 8.95001C10.0667 8.68335 10.0667 8.41668 10 8.15001C10 8.15001 9.86667 8.08335 9.73333 8.01668ZM11.4 1.95C8.8 -0.650001 4.6 -0.650001 2 1.95C-0.133333 4.08333 -0.533333 7.35001 0.933333 9.95001L0 13.35L3.53333 12.4167C4.53333 12.95 5.6 13.2167 6.66667 13.2167C10.3333 13.2167 13.2667 10.2833 13.2667 6.61668C13.3333 4.88333 12.6 3.21667 11.4 1.95ZM9.6 11.2833C8.73333 11.8167 7.73333 12.15 6.66667 12.15C5.66667 12.15 4.73333 11.8833 3.86667 11.4167L3.66667 11.2833L1.6 11.8167L2.13333 9.81668L2 9.61668C0.4 6.95001 1.2 3.61667 3.8 1.95C6.4 0.283335 9.73333 1.15 11.3333 3.68334C12.9333 6.28335 12.2 9.68335 9.6 11.2833Z" fill="black"/>
</svg>
