<svg width="31" height="31" viewBox="0 0 31 31" fill="none" xmlns="http://www.w3.org/2000/svg">
<path d="M26.4596 4.53929C24.2918 2.37174 21.53 0.895662 18.5233 0.297719C15.5167 -0.300223 12.4002 0.00682081 9.56804 1.18003C6.73588 2.35323 4.3152 4.3399 2.61211 6.88883C0.909019 9.43776 0 12.4345 0 15.5C0 18.5655 0.909019 21.5622 2.61211 24.1112C4.3152 26.6601 6.73588 28.6468 9.56804 29.82C12.4002 30.9932 15.5167 31.3002 18.5233 30.7023C21.53 30.1043 24.2918 28.6283 26.4596 26.4607C27.8991 25.0214 29.0409 23.3126 29.82 21.432C30.599 19.5513 31 17.5356 31 15.5C31 13.4644 30.599 11.4487 29.82 9.56804C29.0409 7.6874 27.8991 5.97862 26.4596 4.53929ZM21.0346 19.4193C21.1452 19.5228 21.2334 19.648 21.2937 19.787C21.354 19.9261 21.3851 20.076 21.3851 20.2275C21.3851 20.379 21.354 20.5289 21.2937 20.668C21.2334 20.807 21.1452 20.9321 21.0346 21.0357C20.9311 21.1383 20.8085 21.2195 20.6736 21.2746C20.5387 21.3297 20.3942 21.3576 20.2485 21.3568C19.9581 21.3556 19.6797 21.2402 19.4735 21.0357L15.4989 17.0611L11.5796 21.0357C11.3734 21.2402 11.095 21.3556 10.8046 21.3568C10.6589 21.3576 10.5144 21.3297 10.3796 21.2746C10.2447 21.2195 10.122 21.1383 10.0185 21.0357C9.81232 20.8283 9.69658 20.5477 9.69658 20.2552C9.69658 19.9627 9.81232 19.6821 10.0185 19.4746L13.9378 15.5L10.0185 11.5807C9.83714 11.3689 9.74237 11.0965 9.75313 10.8178C9.76389 10.5392 9.8794 10.2749 10.0766 10.0777C10.2738 9.88052 10.5381 9.76501 10.8167 9.75425C11.0954 9.74349 11.3678 9.83827 11.5796 10.0196L15.4989 13.9389L19.4182 10.0196C19.5207 9.91351 19.6431 9.8286 19.7784 9.76977C19.9137 9.71094 20.0593 9.67934 20.2068 9.67677C20.3543 9.6742 20.5009 9.70071 20.6382 9.75479C20.7755 9.80887 20.9008 9.88947 21.0069 9.99197C21.1131 10.0945 21.198 10.2169 21.2568 10.3522C21.3156 10.4875 21.3472 10.6331 21.3498 10.7806C21.3524 10.9281 21.3259 11.0747 21.2718 11.212C21.2177 11.3493 21.1371 11.4746 21.0346 11.5807L17.06 15.5L21.0346 19.4193Z" fill="#FC6B3F"/>
</svg>
